# xmcd
#
# Track frame offsets: 
#        183
#        21603
#        34975
#        48645
#        68143
#        88848
#        101963
#        122055
#        135658
#        157513
#        169355
#        182683
#        192923
#        206613
#        220410
#        228850
#        239918
#        252135
#        264495
#        278910
#        291333
#        304708
#        316125
#        327260
#
# Disc length: 4514 seconds
#
# Revision: 4
# Processed by: cddbd v1.5.2PL0 Copyright (c) Steve Scherf et al.
# Submitted via: ExactAudioCopyFreeDBPlugin 1.0
#
DISCID=7011a018
DTITLE=Muddy Waters - The Complete Muddy Waters on Chess Records, 1947
DTITLE=1967 [Charly Red Box]
DYEAR=1992
DGENRE=Blues
TTITLE0=I Got My Brand on You
TTITLE1=Hoochie Coochie Man
TTITLE2=Baby Please Don't Go
TTITLE3=Soon Forgotten
TTITLE4=Tiger in Your Tank
TTITLE5=I Feel So Good
TTITLE6=Got My Mojo Working, Part 1
TTITLE7=Got My Mojo Working, Part 2
TTITLE8=Goodbye Newport Blues
TTITLE9=Real Love
TTITLE10=Lonesome Room Blues
TTITLE11=Messin' with the Man
TTITLE12=Going Home
TTITLE13=Down By the Deep Blue Sea
TTITLE14=Muddy Waters Twist
TTITLE15=Tough Times
TTITLE16=You Shook Me
TTITLE17=You Need Love
TTITLE18=Little Brown Bird
TTITLE19=Five Long Years
TTITLE20=Brown Skin Woman
TTITLE21=Twenty Four Hours
TTITLE22=Coming Round the Mountain
TTITLE23=Let Me Hang Around
EXTD=
EXTT0=live 1960 newport
EXTT1=live 1960 newport
EXTT2=live 1960 newport
EXTT3=live 1960 newport
EXTT4=live 1960 newport
EXTT5=live 1960 newport
EXTT6=live 1960 newport
EXTT7=live 1960 newport
EXTT8=live 1960 newport
EXTT9=
EXTT10=
EXTT11=
EXTT12=
EXTT13=
EXTT14=
EXTT15=
EXTT16=
EXTT17=
EXTT18=
EXTT19=
EXTT20=
EXTT21=
EXTT22=
EXTT23=
PLAYORDER=
